<svg width="17" height="16" viewBox="0 0 17 16" fill="none" xmlns="http://www.w3.org/2000/svg">
<path fill-rule="evenodd" clip-rule="evenodd" d="M15.3059 0.300003C15.0302 0.300003 14.7611 0.381403 14.5323 0.53467L10.8069 3.017C9.87214 3.6404 9.01729 4.37604 8.26153 5.20747C9.81392 5.93721 11.0628 7.18608 11.7925 8.73847C12.624 7.98247 13.3596 7.12738 13.983 6.19234L16.4661 2.46774C16.6059 2.25772 16.6861 2.0137 16.6982 1.76169C16.7103 1.50968 16.6538 1.25911 16.5348 1.03666C16.4157 0.814207 16.2386 0.628216 16.0222 0.498492C15.8058 0.368768 15.5582 0.300169 15.3059 0.300003ZM9.21926 10.585C9.7 10.318 10.1643 10.0224 10.6097 9.69987C10.3137 8.95121 9.86726 8.27124 9.29801 7.70199C8.72876 7.13274 8.04878 6.68632 7.30013 6.39034C6.97757 6.83545 6.68199 7.2995 6.41499 7.78L6.21113 8.14667C6.83896 8.3273 7.41064 8.66444 7.87253 9.12646C8.33442 9.58848 8.6714 10.1602 8.85186 10.7881L9.21999 10.5843L9.21926 10.585ZM5.14999 9.1C4.42065 9.1 3.72117 9.38973 3.20545 9.90546C2.68972 10.4212 2.39999 11.1207 2.39999 11.85C2.40003 12.0007 2.3691 12.1498 2.30911 12.2881C2.24913 12.4264 2.16137 12.5508 2.05128 12.6538C1.94119 12.7567 1.81112 12.8359 1.66914 12.8865C1.52716 12.9371 1.3763 12.958 1.22593 12.9478C1.1265 12.9411 1.02712 12.9616 0.938412 13.007C0.849706 13.0524 0.775004 13.1211 0.722289 13.2056C0.669574 13.2902 0.640827 13.3875 0.639119 13.4871C0.637411 13.5868 0.662807 13.685 0.712592 13.7713C1.13565 14.5063 1.7895 15.081 2.57265 15.4062C3.35579 15.7314 4.2244 15.789 5.04362 15.57C5.86284 15.351 6.58684 14.8676 7.1032 14.195C7.61956 13.5223 7.89939 12.698 7.89926 11.85C7.89926 11.4889 7.82813 11.1313 7.68993 10.7976C7.55173 10.464 7.34916 10.1608 7.0938 9.90546C6.83844 9.6501 6.53528 9.44753 6.20164 9.30933C5.86799 9.17113 5.51039 9.1 5.14926 9.1H5.14999Z" fill="#7E3AF2"/>
</svg>
