<svg width="20" height="20" viewBox="0 0 20 20" fill="none" xmlns="http://www.w3.org/2000/svg">
<path d="M9.99963 0.900024C12.4131 0.900024 14.7286 1.85848 16.4352 3.56506C18.1416 5.27154 19.1001 7.58635 19.1002 9.99963C19.1002 12.4131 18.1418 14.7286 16.4352 16.4352C14.7286 18.1418 12.4131 19.1002 9.99963 19.1002C7.58635 19.1001 5.27154 18.1416 3.56506 16.4352C1.85848 14.7286 0.900024 12.4131 0.900024 9.99963C0.900128 7.5863 1.85857 5.27155 3.56506 3.56506C5.27155 1.85857 7.5863 0.900128 9.99963 0.900024ZM9.99963 13.1002C9.54891 13.1003 9.1162 13.2795 8.79749 13.5983C8.47892 13.917 8.30042 14.3497 8.30042 14.8004C8.30052 15.2511 8.47877 15.6838 8.79749 16.0026C9.1162 16.3213 9.54891 16.4995 9.99963 16.4996C10.4503 16.4996 10.883 16.3211 11.2018 16.0026C11.5205 15.6838 11.6997 15.2511 11.6998 14.8004C11.6998 14.3495 11.5206 13.9171 11.2018 13.5983C10.883 13.2795 10.4505 13.1002 9.99963 13.1002ZM9.99963 3.49963C9.54891 3.49974 9.1162 3.67896 8.79749 3.99768C8.47878 4.31644 8.30047 4.74908 8.30042 5.19983V9.99963C8.30042 10.4503 8.47892 10.883 8.79749 11.2018C9.1162 11.5205 9.54891 11.6997 9.99963 11.6998C10.4505 11.6998 10.883 11.5206 11.2018 11.2018C11.5206 10.883 11.6998 10.4505 11.6998 9.99963V5.19983C11.6998 4.74903 11.5205 4.31645 11.2018 3.99768C10.883 3.67905 10.4504 3.49963 9.99963 3.49963Z" fill="#E02424" stroke="#E02424"/>
</svg>
