<svg width="18" height="18" viewBox="0 0 18 18" fill="none" xmlns="http://www.w3.org/2000/svg">
<path fill-rule="evenodd" clip-rule="evenodd" d="M14.8314 1.41073C14.8994 1.46204 14.9545 1.52842 14.9924 1.60465C15.0303 1.68087 15.05 1.76486 15.05 1.85V12.1555C15.0499 12.6336 14.8941 13.0985 14.6062 13.4801C14.3183 13.8617 13.9139 14.1392 13.4542 14.2705L12.4862 14.5469C12.2488 14.6182 11.9995 14.6416 11.7529 14.6158C11.5063 14.5899 11.2673 14.5154 11.0498 14.3964C10.8322 14.2774 10.6405 14.1165 10.4857 13.9228C10.3309 13.7291 10.2161 13.5066 10.1479 13.2682C10.0798 13.0298 10.0597 12.7803 10.0888 12.5341C10.1179 12.2878 10.1956 12.0498 10.3174 11.8339C10.4392 11.6179 10.6027 11.4283 10.7984 11.2761C10.9941 11.1238 11.2181 11.012 11.4574 10.947L13.1521 10.463C13.3819 10.3974 13.5841 10.2586 13.7281 10.0678C13.872 9.87704 13.9499 9.64455 13.95 9.40553V5.32893L7.34998 7.21507V14.3555C7.34988 14.8336 7.19409 15.2985 6.90617 15.6801C6.61826 16.0617 6.21389 16.3392 5.75425 16.4705L4.78625 16.7469C4.54847 16.8192 4.2987 16.8434 4.05148 16.8181C3.80426 16.7928 3.56455 16.7186 3.34633 16.5997C3.1281 16.4808 2.93572 16.3197 2.78042 16.1257C2.62511 15.9317 2.50997 15.7087 2.44173 15.4697C2.37349 15.2308 2.3535 14.9806 2.38293 14.7339C2.41236 14.4871 2.49062 14.2487 2.61314 14.0325C2.73567 13.8163 2.90002 13.6267 3.09659 13.4746C3.29317 13.3226 3.51805 13.2112 3.75811 13.147L5.45211 12.663C5.68193 12.5974 5.88412 12.4586 6.02808 12.2678C6.17203 12.077 6.24993 11.8445 6.24998 11.6055V6.81247V4.05C6.25 3.93049 6.28895 3.81425 6.36093 3.71885C6.43291 3.62345 6.534 3.55409 6.64891 3.52127L14.3489 1.32127C14.4308 1.2978 14.517 1.29367 14.6007 1.3092C14.6844 1.32472 14.7634 1.35948 14.8314 1.41073Z" fill="#7E3AF2"/>
</svg>
