<svg width="16" height="14" viewBox="0 0 16 14" fill="none" xmlns="http://www.w3.org/2000/svg">
<path fill-rule="evenodd" clip-rule="evenodd" d="M0.299927 2.6C0.299927 2.16239 0.473766 1.74271 0.783201 1.43327C1.09264 1.12384 1.51232 0.949997 1.94993 0.949997H14.0499C14.4875 0.949997 14.9072 1.12384 15.2167 1.43327C15.5261 1.74271 15.6999 2.16239 15.6999 2.6V11.4C15.6999 11.8376 15.5261 12.2573 15.2167 12.5667C14.9072 12.8762 14.4875 13.05 14.0499 13.05H1.94993C1.51232 13.05 1.09264 12.8762 0.783201 12.5667C0.473766 12.2573 0.299927 11.8376 0.299927 11.4V2.6ZM1.39993 9.97733V11.4C1.39993 11.7036 1.64633 11.95 1.94993 11.95H14.0499C14.1958 11.95 14.3357 11.8921 14.4388 11.7889C14.542 11.6858 14.5999 11.5459 14.5999 11.4V9.97733L12.6273 8.0054C12.421 7.7994 12.1414 7.6837 11.8499 7.6837C11.5584 7.6837 11.2788 7.7994 11.0726 8.0054L10.4273 8.65L11.1386 9.36133C11.1926 9.41168 11.236 9.4724 11.266 9.53987C11.2961 9.60734 11.3123 9.68017 11.3136 9.75401C11.3149 9.82786 11.3013 9.90122 11.2736 9.9697C11.246 10.0382 11.2048 10.1004 11.1526 10.1526C11.1003 10.2049 11.0381 10.246 10.9696 10.2737C10.9011 10.3013 10.8278 10.3149 10.7539 10.3136C10.6801 10.3123 10.6073 10.2962 10.5398 10.2661C10.4723 10.236 10.4116 10.1927 10.3613 10.1387L6.57726 6.3554C6.37101 6.1494 6.09143 6.0337 5.79993 6.0337C5.50843 6.0337 5.22884 6.1494 5.02259 6.3554L1.39993 9.97806V9.97733ZM8.82493 4.25C8.82493 4.03119 8.91185 3.82135 9.06656 3.66663C9.22128 3.51192 9.43112 3.425 9.64993 3.425C9.86873 3.425 10.0786 3.51192 10.2333 3.66663C10.388 3.82135 10.4749 4.03119 10.4749 4.25C10.4749 4.4688 10.388 4.67864 10.2333 4.83336C10.0786 4.98808 9.86873 5.075 9.64993 5.075C9.43112 5.075 9.22128 4.98808 9.06656 4.83336C8.91185 4.67864 8.82493 4.4688 8.82493 4.25Z" fill="#7E3AF2"/>
</svg>
